<svg width="26" height="26" viewBox="0 0 26 26" fill="none" xmlns="http://www.w3.org/2000/svg">
<path d="M6.51517 8.67331C6.63896 7.69427 7.91134 6.36365 8.92112 6.5113L8.91951 6.50969C9.90222 6.69643 10.6801 8.38783 11.1188 9.14837C11.4296 9.70019 11.2278 10.2593 10.9379 10.4952C10.5468 10.8104 9.93524 11.2453 10.0636 11.682C10.2917 12.4583 13 15.1667 14.3321 15.9366C14.8363 16.228 15.2019 15.4594 15.5141 15.0656C15.7409 14.7627 16.3005 14.5817 16.851 14.8807C17.6733 15.3595 18.4479 15.916 19.1642 16.5425C19.5219 16.8415 19.6058 17.2834 19.358 17.7504C18.9214 18.573 17.6587 19.6577 16.7421 19.4373C15.1411 19.0524 8.66667 16.5425 6.58703 9.27118C6.47007 8.92719 6.49951 8.79714 6.51517 8.67331Z" fill="#0F0F0F"/>
<path fill-rule="evenodd" clip-rule="evenodd" d="M13 24.9166C11.6745 24.9166 10.9411 24.7743 9.75004 24.3749L7.46901 25.5155C6.02838 26.2358 4.33337 25.1882 4.33337 23.5775V21.1249C2.00047 18.9496 1.08337 16.4413 1.08337 12.9999C1.08337 6.41853 6.41865 1.08325 13 1.08325C19.5814 1.08325 24.9167 6.41853 24.9167 12.9999C24.9167 19.5813 19.5814 24.9166 13 24.9166ZM6.50004 20.1827L5.81099 19.5402C3.99848 17.8502 3.25004 15.9608 3.25004 12.9999C3.25004 7.61515 7.61527 3.24992 13 3.24992C18.3849 3.24992 22.75 7.61515 22.75 12.9999C22.75 18.3847 18.3849 22.7499 13 22.7499C11.9322 22.7499 11.4314 22.6535 10.439 22.3207L9.58588 22.0346L6.50004 23.5775V20.1827Z" fill="#0F0F0F"/>
</svg>
